<svg width="798" height="815" viewBox="0 0 798 815" fill="none" xmlns="http://www.w3.org/2000/svg">
<path d="M582.111 94.6701C627.111 135.1 656.561 191.51 703.841 272.59C751.341 353.67 816.841 459.41 792.001 522.45C767.161 585.49 651.541 605.81 542.371 647.15C433.201 688.49 330.421 750.61 235.871 738.5C141.321 726.39 55.0006 640.07 33.2906 544.6C11.3606 448.9 53.8406 344.07 84.4406 248.6C114.821 153.14 133.321 67.0001 186.531 28.0001C239.741 -10.9999 327.681 -2.61987 402.141 13.5901C476.591 30.0001 537.111 54.2501 582.111 94.6701Z" fill="#EAE2C5"/>
<path d="M171.08 774.78H139.78V811.85H93.89V774.78H0V760.78L108.48 612.52H139.78V735.28H171.08V774.78ZM93.89 735.28V689.09L61.08 735.28H93.89Z" fill="#5763DD"/>
<path d="M197.211 712.49C197.211 655.06 213.921 609.78 272.211 609.78C330.211 609.78 346.351 655.06 346.351 712.49C346.351 769.62 330.251 814.59 272.211 814.59C213.921 814.59 197.211 769.62 197.211 712.49ZM300.521 712.49C300.521 677.85 293.831 651.11 272.261 651.11C250.381 651.11 242.791 677.85 242.791 712.49C242.791 746.82 250.381 772.96 272.261 772.96C293.831 773 300.521 746.82 300.521 712.49Z" fill="#5763DD"/>
<path d="M535.1 774.78H503.8V811.85H457.92V774.78H364V760.78L472.5 612.52H503.8V735.28H535.1V774.78ZM457.92 735.28V689.09L425.1 735.28H457.92Z" fill="#5763DD"/>
<path d="M536.74 775.7H553.75V761.3H536.74V775.7Z" fill="#DE8E68"/>
<path d="M555.351 773.45V787.85H514.881V782.61L535.931 773.45H555.351Z" fill="black"/>
<path d="M272.34 599.05H289.35V584.65H272.34V599.05Z" fill="#DE8E68"/>
<path d="M290.95 596.8V611.2H250.49V605.97L271.54 596.8H290.95Z" fill="black"/>
<path d="M536.15 404.21C537.01 412.39 555.08 765.1 555.08 765.1H536.15L444.1 433L536.15 404.21Z" fill="#2C8E9A"/>
<path d="M545.87 365.35C545.87 413.25 528.26 456.35 492.61 456.35C443.67 456.35 378.88 425.15 361.05 407.54C356.6 420.7 293.48 586.46 293.48 586.46H267.34C267.34 586.46 284.09 393.46 315.49 343.96C325.82 330.2 410.12 333.64 452.71 343.96C495.3 354.28 545.87 365.35 545.87 365.35Z" fill="#3BA5AF"/>
<path d="M419.461 86.26C419.757 84.7804 420.588 83.4615 421.793 82.5543C422.999 81.6471 424.497 81.2149 426.001 81.34C429.831 81.61 436.091 91.73 436.091 99.92C436.091 108.11 433.781 111.19 434.481 117.14C435.181 123.09 450.331 203.77 450.331 208.69C454.151 208.96 467.821 207.05 467.821 207.05L458.251 245.59H430.391L412.391 90.36L419.461 86.26Z" fill="#D37C59"/>
<path d="M446.181 100L440.311 123.72C440.311 123.72 382.401 116.99 376.081 115.43C369.761 113.87 379.281 74.6503 385.771 76.2503C392.261 77.8503 446.181 100 446.181 100Z" fill="black"/>
<path d="M499.24 170.17C573.32 170.17 555.05 361.56 546.4 368.72C537.75 375.88 445.65 351.72 438 341.06C430.35 330.4 444.91 170.17 499.24 170.17Z" fill="#FF7777"/>
<path d="M472.801 218.76C468.731 220.14 444.861 229.45 444.861 229.45C444.461 224.65 426.111 129.45 424.981 123.62C427.297 117.801 428.442 111.582 428.351 105.32C428.351 89.69 422.001 77 414.171 77C406.341 77 400.001 89.69 400.001 105.32C399.89 111.862 401.15 118.355 403.701 124.38C402.821 136.28 394.921 249.27 411.041 265.38C428.041 282.38 469.371 267.05 494.491 255.63C499.871 253.77 492.541 213.42 472.801 218.76Z" fill="#DE8E68"/>
<path d="M455.075 109.799L440.094 105.821L437.314 116.288L452.295 120.266L455.075 109.799Z" fill="black"/>
<path d="M546.451 205.33C557.741 227.25 513.031 266.74 500.661 263.8C488.291 260.86 468.341 216.72 472.071 208.8C475.801 200.88 535.471 184 546.451 205.33Z" fill="#FF8080"/>
<path d="M503.78 188.72C503.78 192.43 481.15 193.37 481.15 188.72V146H503.78V188.72Z" fill="#D37C59"/>
<path d="M484.29 170.8C500.604 170.8 513.83 149.413 513.83 123.03C513.83 96.6476 500.604 75.2603 484.29 75.2603C467.976 75.2603 454.75 96.6476 454.75 123.03C454.75 149.413 467.976 170.8 484.29 170.8Z" fill="#DC8E6C"/>
<path d="M462.159 91.38C461.934 94.8109 462.626 98.24 464.164 101.315C465.701 104.391 468.029 107.001 470.909 108.88C479.719 114.88 485.999 112.23 492.459 117.88C495.869 121.29 504.219 127.88 504.299 138.06C504.299 145.59 506.769 149.39 508.939 149.39C511.109 149.39 516.829 147.89 520.509 147.89C556.649 147.89 599.089 185.2 680.509 185.2C723.039 185.2 789.779 174.47 789.779 112.01C789.779 78.28 777.639 37.52 713.469 37.52C672.719 37.52 644.169 57.52 610.689 57.52C567.689 57.52 551.109 41.95 521.399 41.95C500.239 41.95 452.619 54.21 452.619 86.33C452.619 98.53 456.439 102.07 457.619 102.7C457.999 101.36 460.329 94.44 462.159 91.38Z" fill="#361700"/>
<path d="M501.261 141.88C505.425 141.88 508.801 138.505 508.801 134.34C508.801 130.176 505.425 126.8 501.261 126.8C497.096 126.8 493.721 130.176 493.721 134.34C493.721 138.505 497.096 141.88 501.261 141.88Z" fill="#DC8E6C"/>
</svg>
