<svg width="194" height="73" viewBox="0 0 194 73" fill="none" xmlns="http://www.w3.org/2000/svg">
<g filter="url(#filter0_d)">
<path d="M16.7367 51.1018C15.1667 46.0238 16.4676 40.4563 20.1002 36.7018C18.8058 40.1155 19.3035 43.9862 21.4144 46.9234C23.5254 49.8605 26.9469 51.4426 30.4502 51.1018C35.6215 50.5195 40.1539 47.2325 42.4801 42.3782C44.8064 37.5235 44.6067 31.7678 41.9502 27.1018C41.7179 31.4616 38.9966 35.2483 35.0502 36.7018C38.3475 26.1221 33.3574 14.6659 23.5502 10.3018C23.5502 20.3256 10.4057 26.701 9.75023 36.7018C9.37165 42.4757 12.053 48.0019 16.7367 51.1018Z" fill="white"/>
</g>
<g filter="url(#filter1_d)">
<path d="M69.6 45.7966C69.6 46.6286 69.296 47.3326 68.688 47.9086C68.08 48.4526 67.376 48.7246 66.576 48.7246C65.712 48.7246 64.992 48.4526 64.416 47.9086C63.872 47.3326 63.6 46.6286 63.6 45.7966V18.0526C63.6 17.2206 63.888 16.5326 64.464 15.9886C65.04 15.4126 65.776 15.1246 66.672 15.1246C67.472 15.1246 68.16 15.4126 68.736 15.9886C69.312 16.5326 69.6 17.2206 69.6 18.0526V45.7966ZM97.6028 22.5646C98.4348 22.5646 99.1228 22.8366 99.6667 23.3806C100.211 23.9246 100.483 24.6286 100.483 25.4926V46.8526C100.483 50.7566 99.2668 53.6366 96.8348 55.4926C94.4348 57.3806 91.3788 58.3246 87.6668 58.3246C86.7068 58.3246 85.3788 58.1646 83.6828 57.8446C82.0188 57.5246 80.8348 57.2046 80.1308 56.8846C78.5628 56.2126 77.7788 55.2846 77.7788 54.1006C77.7788 53.8766 77.8268 53.6206 77.9228 53.3326C78.1148 52.6286 78.4348 52.0846 78.8828 51.7006C79.3628 51.3486 79.8748 51.1726 80.4188 51.1726C80.7388 51.1726 81.0428 51.2206 81.3308 51.3166C81.4588 51.3486 82.2428 51.6366 83.6828 52.1806C85.1548 52.7566 86.4828 53.0446 87.6668 53.0446C90.0348 53.0446 91.7948 52.5646 92.9468 51.6046C94.1308 50.6766 94.7228 49.3486 94.7228 47.6206V45.3166C94.0188 46.3086 92.9468 47.2046 91.5068 48.0046C90.0988 48.8046 88.5788 49.2046 86.9468 49.2046C84.7068 49.2046 82.6588 48.6446 80.8028 47.5246C78.9788 46.3726 77.5388 44.7886 76.4828 42.7726C75.4268 40.7566 74.8988 38.4686 74.8988 35.9086C74.8988 33.3486 75.4108 31.0606 76.4348 29.0446C77.4908 26.9966 78.9148 25.4126 80.7068 24.2926C82.5308 23.1406 84.5468 22.5646 86.7548 22.5646C88.3868 22.5646 89.9068 22.9006 91.3148 23.5726C92.7228 24.2446 93.8588 25.0606 94.7228 26.0206V25.4926C94.7228 24.6606 94.9948 23.9726 95.5388 23.4286C96.0828 22.8526 96.7708 22.5646 97.6028 22.5646ZM87.6668 43.9246C89.8108 43.9246 91.5548 43.1726 92.8988 41.6686C94.2748 40.1326 94.9628 38.2126 94.9628 35.9086C94.9628 33.6046 94.2748 31.6846 92.8988 30.1486C91.5548 28.6126 89.8108 27.8446 87.6668 27.8446C85.5228 27.8446 83.7788 28.6126 82.4348 30.1486C81.0908 31.6846 80.4188 33.6046 80.4188 35.9086C80.4188 38.2126 81.0908 40.1326 82.4348 41.6686C83.7788 43.1726 85.5228 43.9246 87.6668 43.9246ZM120.442 22.5646C123.706 22.5646 125.962 23.5406 127.21 25.4926C128.458 27.4126 129.082 30.0846 129.082 33.5086V45.7966C129.082 46.6286 128.81 47.3326 128.266 47.9086C127.722 48.4526 127.034 48.7246 126.202 48.7246C125.37 48.7246 124.682 48.4526 124.138 47.9086C123.594 47.3326 123.322 46.6286 123.322 45.7966V33.5086C123.322 31.7486 122.954 30.3726 122.218 29.3806C121.482 28.3566 120.218 27.8446 118.426 27.8446C116.57 27.8446 115.114 28.3886 114.058 29.4766C113.002 30.5326 112.474 31.8766 112.474 33.5086V45.7966C112.474 46.6286 112.202 47.3326 111.658 47.9086C111.114 48.4526 110.426 48.7246 109.594 48.7246C108.762 48.7246 108.074 48.4526 107.53 47.9086C106.986 47.3326 106.714 46.6286 106.714 45.7966V25.9726C106.714 25.1406 106.986 24.4526 107.53 23.9086C108.074 23.3326 108.762 23.0446 109.594 23.0446C110.426 23.0446 111.114 23.3326 111.658 23.9086C112.202 24.4526 112.474 25.1406 112.474 25.9726V26.7886C113.338 25.6366 114.458 24.6446 115.834 23.8126C117.242 22.9806 118.778 22.5646 120.442 22.5646ZM140.732 45.7966C140.732 46.6286 140.46 47.3326 139.916 47.9086C139.372 48.4526 138.684 48.7246 137.852 48.7246C137.02 48.7246 136.332 48.4526 135.788 47.9086C135.244 47.3326 134.972 46.6286 134.972 45.7966V25.9726C134.972 25.1406 135.244 24.4526 135.788 23.9086C136.332 23.3326 137.02 23.0446 137.852 23.0446C138.684 23.0446 139.372 23.3326 139.916 23.9086C140.46 24.4526 140.732 25.1406 140.732 25.9726V45.7966ZM137.804 19.9246C136.716 19.9246 135.948 19.7486 135.5 19.3966C135.052 19.0446 134.828 18.4206 134.828 17.5246V16.6126C134.828 15.7166 135.068 15.0926 135.548 14.7406C136.028 14.3886 136.796 14.2126 137.852 14.2126C138.972 14.2126 139.756 14.3886 140.204 14.7406C140.652 15.0926 140.876 15.7166 140.876 16.6126V17.5246C140.876 18.4526 140.636 19.0926 140.156 19.4446C139.708 19.7646 138.924 19.9246 137.804 19.9246ZM159.035 43.3006C159.483 43.3006 159.883 43.5246 160.235 43.9726C160.619 44.3886 160.811 44.9486 160.811 45.6526C160.811 46.5166 160.331 47.2526 159.371 47.8606C158.443 48.4366 157.387 48.7246 156.203 48.7246C154.219 48.7246 152.539 48.3086 151.163 47.4766C149.819 46.6126 149.147 44.8046 149.147 42.0526V28.8046H146.939C146.171 28.8046 145.531 28.5486 145.019 28.0366C144.507 27.5246 144.251 26.8846 144.251 26.1166C144.251 25.3806 144.507 24.7726 145.019 24.2926C145.531 23.7806 146.171 23.5246 146.939 23.5246H149.147V20.4526C149.147 19.6206 149.419 18.9326 149.963 18.3886C150.539 17.8126 151.243 17.5246 152.075 17.5246C152.875 17.5246 153.547 17.8126 154.091 18.3886C154.635 18.9326 154.907 19.6206 154.907 20.4526V23.5246H158.315C159.083 23.5246 159.723 23.7806 160.235 24.2926C160.747 24.8046 161.003 25.4446 161.003 26.2126C161.003 26.9486 160.747 27.5726 160.235 28.0846C159.723 28.5646 159.083 28.8046 158.315 28.8046H154.907V41.8126C154.907 42.4846 155.083 42.9806 155.435 43.3006C155.787 43.5886 156.267 43.7326 156.875 43.7326C157.131 43.7326 157.483 43.6686 157.931 43.5406C158.315 43.3806 158.683 43.3006 159.035 43.3006ZM189.098 35.2846C189.066 36.0526 188.762 36.6766 188.186 37.1566C187.61 37.6366 186.938 37.8766 186.17 37.8766H170.33C170.714 39.7646 171.594 41.2526 172.97 42.3406C174.346 43.3966 175.898 43.9246 177.626 43.9246C178.938 43.9246 179.962 43.8126 180.698 43.5886C181.434 43.3326 182.01 43.0766 182.426 42.8206C182.874 42.5326 183.178 42.3406 183.338 42.2446C183.914 41.9566 184.458 41.8126 184.97 41.8126C185.642 41.8126 186.218 42.0526 186.698 42.5326C187.178 43.0126 187.418 43.5726 187.418 44.2126C187.418 45.0766 186.97 45.8606 186.074 46.5646C185.178 47.3006 183.978 47.9246 182.474 48.4366C180.97 48.9486 179.45 49.2046 177.914 49.2046C175.226 49.2046 172.874 48.6446 170.858 47.5246C168.874 46.4046 167.338 44.8686 166.25 42.9166C165.162 40.9326 164.618 38.7086 164.618 36.2446C164.618 33.4926 165.194 31.0766 166.346 28.9966C167.498 26.9166 169.018 25.3326 170.906 24.2446C172.794 23.1246 174.81 22.5646 176.954 22.5646C179.066 22.5646 181.05 23.1406 182.906 24.2926C184.794 25.4446 186.298 26.9966 187.418 28.9486C188.538 30.9006 189.098 33.0126 189.098 35.2846ZM176.954 27.8446C173.242 27.8446 171.05 29.5886 170.378 33.0766H182.954V32.7406C182.826 31.3966 182.17 30.2446 180.986 29.2846C179.802 28.3246 178.458 27.8446 176.954 27.8446Z" fill="#FCFCFC"/>
</g>
<defs>
<filter id="filter0_d" x="0" y="4.70166" width="54" height="68" filterUnits="userSpaceOnUse" color-interpolation-filters="sRGB">
<feFlood flood-opacity="0" result="BackgroundImageFix"/>
<feColorMatrix in="SourceAlpha" type="matrix" values="0 0 0 0 0 0 0 0 0 0 0 0 0 0 0 0 0 0 127 0"/>
<feOffset dy="2"/>
<feGaussianBlur stdDeviation="2"/>
<feColorMatrix type="matrix" values="0 0 0 0 0 0 0 0 0 0 0 0 0 0 0 0 0 0 0.25 0"/>
<feBlend mode="normal" in2="BackgroundImageFix" result="effect1_dropShadow"/>
<feBlend mode="normal" in="SourceGraphic" in2="effect1_dropShadow" result="shape"/>
</filter>
<filter id="filter1_d" x="59.5996" y="12.2124" width="133.497" height="52.112" filterUnits="userSpaceOnUse" color-interpolation-filters="sRGB">
<feFlood flood-opacity="0" result="BackgroundImageFix"/>
<feColorMatrix in="SourceAlpha" type="matrix" values="0 0 0 0 0 0 0 0 0 0 0 0 0 0 0 0 0 0 127 0"/>
<feOffset dy="2"/>
<feGaussianBlur stdDeviation="2"/>
<feColorMatrix type="matrix" values="0 0 0 0 0 0 0 0 0 0 0 0 0 0 0 0 0 0 0.25 0"/>
<feBlend mode="normal" in2="BackgroundImageFix" result="effect1_dropShadow"/>
<feBlend mode="normal" in="SourceGraphic" in2="effect1_dropShadow" result="shape"/>
</filter>
</defs>
</svg>
