<svg width="187" height="66" viewBox="0 0 187 66" fill="none" xmlns="http://www.w3.org/2000/svg">
<path d="M12.7367 50.3879C11.1667 45.31 12.4676 39.7424 16.1002 35.9879C14.8058 39.4016 15.3035 43.2724 17.4144 46.2095C19.5254 49.1466 22.9469 50.7287 26.4502 50.3879C31.6215 49.8056 36.1539 46.5186 38.4801 41.6644C40.8064 36.8096 40.6067 31.054 37.9502 26.3879C37.7179 30.7477 34.9966 34.5344 31.0502 35.9879C34.3475 25.4082 29.3574 13.9521 19.5502 9.58789C19.5502 19.6117 6.40573 25.9871 5.75023 35.9879C5.37165 41.7618 8.05299 47.288 12.7367 50.3879Z" fill="#5763DD"/>
<path d="M65.6 45.0837C65.6 45.9157 65.296 46.6197 64.688 47.1957C64.08 47.7397 63.376 48.0117 62.576 48.0117C61.712 48.0117 60.992 47.7397 60.416 47.1957C59.872 46.6197 59.6 45.9157 59.6 45.0837V17.3397C59.6 16.5077 59.888 15.8197 60.464 15.2757C61.04 14.6997 61.776 14.4117 62.672 14.4117C63.472 14.4117 64.16 14.6997 64.736 15.2757C65.312 15.8197 65.6 16.5077 65.6 17.3397V45.0837ZM93.6028 21.8517C94.4348 21.8517 95.1228 22.1237 95.6667 22.6677C96.2108 23.2117 96.4828 23.9157 96.4828 24.7797V46.1397C96.4828 50.0437 95.2668 52.9237 92.8348 54.7797C90.4348 56.6677 87.3788 57.6117 83.6668 57.6117C82.7068 57.6117 81.3788 57.4517 79.6828 57.1317C78.0188 56.8117 76.8348 56.4917 76.1308 56.1717C74.5628 55.4997 73.7788 54.5717 73.7788 53.3877C73.7788 53.1637 73.8268 52.9077 73.9228 52.6197C74.1148 51.9157 74.4348 51.3717 74.8828 50.9877C75.3628 50.6357 75.8748 50.4597 76.4188 50.4597C76.7388 50.4597 77.0428 50.5077 77.3308 50.6037C77.4588 50.6357 78.2428 50.9237 79.6828 51.4677C81.1548 52.0437 82.4828 52.3317 83.6668 52.3317C86.0348 52.3317 87.7948 51.8517 88.9468 50.8917C90.1308 49.9637 90.7228 48.6357 90.7228 46.9077V44.6037C90.0188 45.5957 88.9468 46.4917 87.5068 47.2917C86.0988 48.0917 84.5788 48.4917 82.9468 48.4917C80.7068 48.4917 78.6588 47.9317 76.8028 46.8117C74.9788 45.6597 73.5388 44.0757 72.4828 42.0597C71.4268 40.0437 70.8988 37.7557 70.8988 35.1957C70.8988 32.6357 71.4108 30.3477 72.4348 28.3317C73.4908 26.2837 74.9148 24.6997 76.7068 23.5797C78.5308 22.4277 80.5468 21.8517 82.7548 21.8517C84.3868 21.8517 85.9068 22.1877 87.3148 22.8597C88.7228 23.5317 89.8588 24.3477 90.7228 25.3077V24.7797C90.7228 23.9477 90.9948 23.2597 91.5388 22.7157C92.0828 22.1397 92.7708 21.8517 93.6028 21.8517ZM83.6668 43.2117C85.8108 43.2117 87.5548 42.4597 88.8988 40.9557C90.2748 39.4197 90.9628 37.4997 90.9628 35.1957C90.9628 32.8917 90.2748 30.9717 88.8988 29.4357C87.5548 27.8997 85.8108 27.1317 83.6668 27.1317C81.5228 27.1317 79.7788 27.8997 78.4348 29.4357C77.0908 30.9717 76.4188 32.8917 76.4188 35.1957C76.4188 37.4997 77.0908 39.4197 78.4348 40.9557C79.7788 42.4597 81.5228 43.2117 83.6668 43.2117ZM116.442 21.8517C119.706 21.8517 121.962 22.8277 123.21 24.7797C124.458 26.6997 125.082 29.3717 125.082 32.7957V45.0837C125.082 45.9157 124.81 46.6197 124.266 47.1957C123.722 47.7397 123.034 48.0117 122.202 48.0117C121.37 48.0117 120.682 47.7397 120.138 47.1957C119.594 46.6197 119.322 45.9157 119.322 45.0837V32.7957C119.322 31.0357 118.954 29.6597 118.218 28.6677C117.482 27.6437 116.218 27.1317 114.426 27.1317C112.57 27.1317 111.114 27.6757 110.058 28.7637C109.002 29.8197 108.474 31.1637 108.474 32.7957V45.0837C108.474 45.9157 108.202 46.6197 107.658 47.1957C107.114 47.7397 106.426 48.0117 105.594 48.0117C104.762 48.0117 104.074 47.7397 103.53 47.1957C102.986 46.6197 102.714 45.9157 102.714 45.0837V25.2597C102.714 24.4277 102.986 23.7397 103.53 23.1957C104.074 22.6197 104.762 22.3317 105.594 22.3317C106.426 22.3317 107.114 22.6197 107.658 23.1957C108.202 23.7397 108.474 24.4277 108.474 25.2597V26.0757C109.338 24.9237 110.458 23.9317 111.834 23.0997C113.242 22.2677 114.778 21.8517 116.442 21.8517ZM136.732 45.0837C136.732 45.9157 136.46 46.6197 135.916 47.1957C135.372 47.7397 134.684 48.0117 133.852 48.0117C133.02 48.0117 132.332 47.7397 131.788 47.1957C131.244 46.6197 130.972 45.9157 130.972 45.0837V25.2597C130.972 24.4277 131.244 23.7397 131.788 23.1957C132.332 22.6197 133.02 22.3317 133.852 22.3317C134.684 22.3317 135.372 22.6197 135.916 23.1957C136.46 23.7397 136.732 24.4277 136.732 25.2597V45.0837ZM133.804 19.2117C132.716 19.2117 131.948 19.0357 131.5 18.6837C131.052 18.3317 130.828 17.7077 130.828 16.8117V15.8997C130.828 15.0037 131.068 14.3797 131.548 14.0277C132.028 13.6757 132.796 13.4997 133.852 13.4997C134.972 13.4997 135.756 13.6757 136.204 14.0277C136.652 14.3797 136.876 15.0037 136.876 15.8997V16.8117C136.876 17.7397 136.636 18.3797 136.156 18.7317C135.708 19.0517 134.924 19.2117 133.804 19.2117ZM155.035 42.5877C155.483 42.5877 155.883 42.8117 156.235 43.2597C156.619 43.6757 156.811 44.2357 156.811 44.9397C156.811 45.8037 156.331 46.5397 155.371 47.1477C154.443 47.7237 153.387 48.0117 152.203 48.0117C150.219 48.0117 148.539 47.5957 147.163 46.7637C145.819 45.8997 145.147 44.0917 145.147 41.3397V28.0917H142.939C142.171 28.0917 141.531 27.8357 141.019 27.3237C140.507 26.8117 140.251 26.1717 140.251 25.4037C140.251 24.6677 140.507 24.0597 141.019 23.5797C141.531 23.0677 142.171 22.8117 142.939 22.8117H145.147V19.7397C145.147 18.9077 145.419 18.2197 145.963 17.6757C146.539 17.0997 147.243 16.8117 148.075 16.8117C148.875 16.8117 149.547 17.0997 150.091 17.6757C150.635 18.2197 150.907 18.9077 150.907 19.7397V22.8117H154.315C155.083 22.8117 155.723 23.0677 156.235 23.5797C156.747 24.0917 157.003 24.7317 157.003 25.4997C157.003 26.2357 156.747 26.8597 156.235 27.3717C155.723 27.8517 155.083 28.0917 154.315 28.0917H150.907V41.0997C150.907 41.7717 151.083 42.2677 151.435 42.5877C151.787 42.8757 152.267 43.0197 152.875 43.0197C153.131 43.0197 153.483 42.9557 153.931 42.8277C154.315 42.6677 154.683 42.5877 155.035 42.5877ZM185.098 34.5717C185.066 35.3397 184.762 35.9637 184.186 36.4437C183.61 36.9237 182.938 37.1637 182.17 37.1637H166.33C166.714 39.0517 167.594 40.5397 168.97 41.6277C170.346 42.6837 171.898 43.2117 173.626 43.2117C174.938 43.2117 175.962 43.0997 176.698 42.8757C177.434 42.6197 178.01 42.3637 178.426 42.1077C178.874 41.8197 179.178 41.6277 179.338 41.5317C179.914 41.2437 180.458 41.0997 180.97 41.0997C181.642 41.0997 182.218 41.3397 182.698 41.8197C183.178 42.2997 183.418 42.8597 183.418 43.4997C183.418 44.3637 182.97 45.1477 182.074 45.8517C181.178 46.5877 179.978 47.2117 178.474 47.7237C176.97 48.2357 175.45 48.4917 173.914 48.4917C171.226 48.4917 168.874 47.9317 166.858 46.8117C164.874 45.6917 163.338 44.1557 162.25 42.2037C161.162 40.2197 160.618 37.9957 160.618 35.5317C160.618 32.7797 161.194 30.3637 162.346 28.2837C163.498 26.2037 165.018 24.6197 166.906 23.5317C168.794 22.4117 170.81 21.8517 172.954 21.8517C175.066 21.8517 177.05 22.4277 178.906 23.5797C180.794 24.7317 182.298 26.2837 183.418 28.2357C184.538 30.1877 185.098 32.2997 185.098 34.5717ZM172.954 27.1317C169.242 27.1317 167.05 28.8757 166.378 32.3637H178.954V32.0277C178.826 30.6837 178.17 29.5317 176.986 28.5717C175.802 27.6117 174.458 27.1317 172.954 27.1317Z" fill="#5763DD"/>
</svg>
