<svg width="774" height="638" viewBox="0 0 774 638" fill="none" xmlns="http://www.w3.org/2000/svg">
<g clip-path="url(#clip0)">
<path d="M549.288 50.3405C629.288 69.5405 695.078 153.65 694.058 236.58C693.058 319.33 625.238 400.9 568.488 479.4C511.898 557.91 466.698 633.401 409.488 637.401C352.208 641.341 283.008 573.71 225.748 528.85C168.308 484 122.938 461.901 83.8578 422.48C44.7778 383.06 12.1478 326.3 19.7878 275.48C27.4278 224.66 75.3578 179.81 125.488 155.34C175.788 130.7 228.118 126.45 301.488 101.47C374.858 76.4905 469.208 31.0005 549.288 50.3405Z" fill="#79A4E3" fill-opacity="0.7"/>
<path d="M508.797 434.14L404.207 227.65C401.017 225.79 388.207 217.56 388.207 217.56" stroke="#DFDFDF" stroke-width="5" stroke-linecap="round" stroke-linejoin="round"/>
<path d="M396.707 244C395.457 239.87 391.707 231.36 391.707 231.36C389.417 231.22 373.477 223.02 373.477 223.02" stroke="#DFDFDF" stroke-width="5" stroke-linecap="round" stroke-linejoin="round"/>
<path d="M368.918 223.78L418.478 203.56" stroke="#DFDFDF" stroke-width="5" stroke-linecap="round" stroke-linejoin="round"/>
<path d="M12.947 539.2L0.207031 550.97L30.787 591.07L40.247 582.7L25.687 547.02L12.947 539.2Z" fill="black"/>
<path d="M259.878 502.6L249.348 522L275.488 562.7L286.498 559.86L279.278 506.74L259.878 502.6Z" fill="black"/>
<path d="M379.046 227.65C387.64 227.65 394.606 222.452 394.606 216.04C394.606 209.628 387.64 204.43 379.046 204.43C370.453 204.43 363.486 209.628 363.486 216.04C363.486 222.452 370.453 227.65 379.046 227.65Z" fill="#D37C59"/>
<path d="M171.396 228.3C164.396 238.3 10.5664 540.38 10.5664 540.38L27.9664 551L230.966 331.32L171.396 228.3Z" fill="#56CAD8"/>
<path d="M303.927 155C307.927 158.42 319.647 171.72 323.477 174.14C327.307 176.56 371.237 203.96 379.477 206.38C387.717 208.8 370.207 216 370.207 216C370.207 216 312.977 203.31 308.747 200.49C304.517 197.67 279.447 177.49 279.447 172.08C279.447 166.67 303.927 155 303.927 155Z" fill="#D37C59"/>
<path d="M270.396 129C283.166 115.15 308.106 148 307.566 152.83C307.026 157.66 289.386 177.92 278.206 177.92C274.856 177.92 261.426 138.73 270.396 129Z" fill="#FCC486"/>
<path d="M169.418 231.34C166.418 235.34 153.418 267.34 153.418 278.34C153.418 353.34 265.238 372.8 281.298 372.8C278.978 383.27 254.378 502.19 255.538 504.8C256.698 507.41 277.108 512.74 281.298 512.05C297.298 503.34 348.948 382.05 345.068 364.8C339.618 340.63 254.068 269.94 241.708 262.9C229.348 255.86 169.418 231.34 169.418 231.34Z" fill="#74D5DE"/>
<path d="M243.287 98C329.357 98 262.677 259.78 247.537 268.55C237.537 274.33 175.537 252.35 168.897 230.3C166.627 222.77 195.727 98 243.287 98Z" fill="#FED385"/>
<path d="M365.947 233.12C374.54 233.12 381.507 227.922 381.507 221.51C381.507 215.098 374.54 209.9 365.947 209.9C357.353 209.9 350.387 215.098 350.387 221.51C350.387 227.922 357.353 233.12 365.947 233.12Z" fill="#DE8E68"/>
<path d="M215.816 172.7C216.026 180.86 218.756 218.31 222.146 219.44C263.146 233.12 334.146 227.09 346.406 226.27C358.666 225.45 366.526 216.82 365.916 214.77C365.306 212.72 326.746 197 259.806 195.15C258.566 187.59 261.536 164.74 258.476 162.7C255.416 160.66 215.816 172.7 215.816 172.7Z" fill="#DE8E68"/>
<path d="M227.208 104.93C262.818 97.6504 269.208 164.13 265.788 169.03C262.368 173.93 216.998 180.86 211.078 176.58C205.158 172.3 200.208 110.44 227.208 104.93Z" fill="#FED892"/>
<path d="M251.436 56.6602C249.796 62.9202 238.606 98.7602 239.296 100.66C239.986 102.56 255.386 110.94 261.296 110.02C261.526 107.29 264.036 92.6702 269.176 83.8802C274.316 75.0902 251.436 56.6602 251.436 56.6602Z" fill="#D37C59"/>
<path d="M297.037 56.8393C298.963 37.7737 290.255 21.2806 277.586 20.001C264.918 18.7213 253.087 33.1397 251.161 52.2053C249.235 71.2708 257.944 87.7639 270.612 89.0436C283.281 90.3232 295.112 75.9048 297.037 56.8393Z" fill="#DE8E68"/>
<path d="M248.947 56.66C246.327 55.22 241.357 46.74 241.357 38.86C241.357 26.53 253.647 19.51 261.937 15.86C268.207 13.05 273.537 0 287.817 0C299.207 0 299.967 11.47 305.207 11.91C318.787 13.04 326.407 13.55 326.407 23.42C326.407 30.67 317.107 50.42 298.137 50.42C298.137 46.76 296.907 37.67 294.877 33.3C283.477 33.87 274.197 48.52 258.387 48.46C254.997 48.4 248.947 56.66 248.947 56.66Z" fill="#FD8369"/>
<path d="M254.916 62.8002C258.794 62.8002 261.936 58.9632 261.936 54.2302C261.936 49.4971 258.794 45.6602 254.916 45.6602C251.039 45.6602 247.896 49.4971 247.896 54.2302C247.896 58.9632 251.039 62.8002 254.916 62.8002Z" fill="#DE8E68"/>
<path d="M760.327 512.06H433.607V441.17C451.477 439.59 705.497 415.59 705.497 415.59V261.46L396.707 244L433.607 441.19" stroke="#DFDFDF" stroke-width="5" stroke-linecap="round" stroke-linejoin="round"/>
<path d="M459.867 551.23C468.24 551.23 475.027 544.443 475.027 536.07C475.027 527.698 468.24 520.91 459.867 520.91C451.494 520.91 444.707 527.698 444.707 536.07C444.707 544.443 451.494 551.23 459.867 551.23Z" stroke="#DFDFDF" stroke-width="5" stroke-linecap="round" stroke-linejoin="round"/>
<path d="M755.957 551.23C764.329 551.23 771.117 544.443 771.117 536.07C771.117 527.698 764.329 520.91 755.957 520.91C747.584 520.91 740.797 527.698 740.797 536.07C740.797 544.443 747.584 551.23 755.957 551.23Z" stroke="#DFDFDF" stroke-width="5" stroke-linecap="round" stroke-linejoin="round"/>
<path d="M408.768 308.43H705.498" stroke="#DFDFDF" stroke-width="5" stroke-linecap="round" stroke-linejoin="round"/>
<path d="M416.967 352.25H705.497" stroke="#DFDFDF" stroke-width="5" stroke-linecap="round" stroke-linejoin="round"/>
<path d="M343.826 234.01L368.916 223.78" stroke="#DFDFDF" stroke-width="5" stroke-linecap="round" stroke-linejoin="round"/>
<path d="M442.078 352.25C438.828 343.06 404.348 244.41 404.348 244.41" stroke="#DFDFDF" stroke-width="5" stroke-linecap="round" stroke-linejoin="round"/>
</g>
<defs>
<clipPath id="clip0">
<rect width="773.41" height="637.6" fill="white" transform="translate(0.207031)"/>
</clipPath>
</defs>
</svg>
